# xmcd CD database file
#
# Track frame offsets:
#	150
#	15928
#	30721
#	50438
#	72703
#	88954
#	107110
#	121665
#	140552
#	157167
#	172471
#	184818
#
# Disc length: 2687 seconds
#
# Revision: 0
# Processed by: cddbd v1.5.2PL0 Copyright (c) Steve Scherf et al.
# Submitted via: CDex 1.79
#
DISCID=af0a7d0c
DTITLE=Steve Wariner - It Ain't All Bad
DYEAR=2013
DGENRE=Country
TTITLE0=It Ain't All Bad
TTITLE1=Voodoo
TTITLE2=Arrows At Airplanes
TTITLE3=Don't Tell Her I'm Not
TTITLE4=Bluebonnet Memories
TTITLE5=What More Do You Want
TTITLE6=Spokes In A Wheel
TTITLE7=I Want To Be Like You
TTITLE8=It's Called A Brand New Day
TTITLE9=Whenever I See You 
TTITLE10='48 Ford
TTITLE11=A Thousand Winds
EXTD=YEAR: 2013
EXTT0=
EXTT1=
EXTT2=
EXTT3=
EXTT4=
EXTT5=
EXTT6=
EXTT7=
EXTT8=
EXTT9=
EXTT10=
EXTT11=
PLAYORDER=
